<svg width="149" height="243" viewBox="0 0 149 243" fill="none" xmlns="http://www.w3.org/2000/svg">
<path d="M16.5 151.057C5.5 188.057 0 242.057 0 242.057L3 97.057C3 97.057 9.34531 86.1948 14.5 80.057C22.6042 70.407 31.7169 69.3408 39 59.057C43.1892 53.1417 42.0248 47.3069 47.5 42.557C51.9931 38.659 56.6469 39.9964 61.5 36.557C70.7893 29.9735 70.5 13.557 76.5 11.557C82.5 9.55695 87.737 13.474 94.5 11.557C99.1208 10.2471 101 5.55696 105.5 6.05695C110 6.55695 112 11.5569 117 11.557C122 11.557 131.5 -0.943054 137 0.0569534C142.5 1.05696 148.5 7.55692 148.5 9.55695C148.5 11.557 121.5 16.057 113 16.557C104.5 17.057 84.5 32.057 81 36.557C77.5 41.057 79.6435 44.1423 76.5 47.557C72.7664 51.6126 71.5 48.557 63.5 53.057C55.5 57.557 27.5 114.057 16.5 151.057Z" fill="#199A20"/>
</svg>
